<?xml version="1.0" encoding="utf-8"?>
<!-- Generator: Adobe Illustrator 17.0.0, SVG Export Plug-In . SVG Version: 6.00 Build 0)  -->
<!DOCTYPE svg PUBLIC "-//W3C//DTD SVG 1.1//EN" "http://www.w3.org/Graphics/SVG/1.1/DTD/svg11.dtd">
<svg version="1.1" id="Shape_32_1_" xmlns="http://www.w3.org/2000/svg" xmlns:xlink="http://www.w3.org/1999/xlink" x="0px"
	 y="0px" width="20px" height="18px" viewBox="0 0 20 18" enable-background="new 0 0 20 18" xml:space="preserve">
 <symbol viewBox="0 0 20 18" id="blog">
<g id="Shape_32">
	<g>
		<path clip-rule="evenodd" d="M13.82,2.781c-0.818,0-1.482,0.657-1.482,1.464
			c0,0.271,0.222,0.49,0.496,0.49s0.496-0.219,0.496-0.49c0-0.267,0.22-0.485,0.491-0.485c0.271,0,0.491,0.217,0.491,0.485
			c0,0.132-0.162,0.276-0.409,0.481c-0.315,0.261-0.707,0.579-0.703,1.11c0.002,0.269,0.224,0.479,0.496,0.479
			c0.001,0,0.003,0,0.004,0c0.274,0,0.494-0.216,0.492-0.487c-0.001-0.069,0.226-0.254,0.348-0.355
			c0.322-0.267,0.763-0.631,0.763-1.23C15.302,3.436,14.637,2.781,13.82,2.781z M13.708,6.767c-0.274,0-0.485,0.219-0.485,0.49
			v0.004c0,0.271,0.211,0.488,0.485,0.488c0.274,0,0.496-0.221,0.496-0.492C14.204,6.986,13.982,6.767,13.708,6.767z M5.436,10.18
			c-0.274,0-0.496,0.219-0.496,0.49c0,0.271,0.222,0.49,0.496,0.49h0.041c0.274,0,0.496-0.219,0.496-0.49
			c0-0.271-0.222-0.49-0.496-0.49H5.436z M3.713,10.18c-0.274,0-0.496,0.219-0.496,0.49c0,0.271,0.222,0.49,0.496,0.49h0.041
			c0.274,0,0.496-0.219,0.496-0.49c0-0.271-0.222-0.49-0.496-0.49H3.713z M17.619,0H10.02C8.699,0,7.603,1.049,7.603,2.354v3.307
			H2.409C1.087,5.661,0,6.728,0,8.034v5.515c0,1.306,1.087,2.347,2.409,2.347H9.4l2.174,1.971C11.667,17.951,11.786,18,11.908,18
			c0.068,0,0.132-0.011,0.196-0.039c0.18-0.078,0.292-0.252,0.292-0.446v-5.767c0-0.271-0.222-0.49-0.496-0.49
			c-0.274,0-0.496,0.219-0.496,0.49v4.657l-1.482-1.35c-0.091-0.082-0.207-0.139-0.331-0.139H2.409
			c-0.775,0-1.417-0.602-1.417-1.367V8.034c0-0.765,0.642-1.393,1.417-1.393h5.194v5.194c0,0.194,0.126,0.37,0.306,0.448
			c0.18,0.078,0.394,0.044,0.54-0.086l1.819-1.638c0.047-0.043,0.091-0.082,0.13-0.117c0.098-0.089,0.2-0.181,0.241-0.209
			c0.04-0.004,0.142-0.004,0.233-0.002c0.087,0.002,0.19,0.003,0.316,0.003h6.431c1.321,0,2.381-1.06,2.381-2.365V2.354
			C20,1.049,18.94,0,17.619,0z M19.008,7.869c0,0.765-0.615,1.385-1.389,1.385h-6.431c-0.117,0-0.214-0.001-0.295-0.002
			c-0.594-0.012-0.71,0.054-1.166,0.469C9.69,9.755,9.638,9.793,9.592,9.835l-0.997,0.89V6.156V2.354
			c0-0.765,0.651-1.375,1.425-1.375h7.599c0.775,0,1.389,0.609,1.389,1.375V7.869z"/>
	</g>
</g>
</symbol>
</svg>
