<?xml version="1.0" encoding="utf-8"?>
<!-- Generator: Adobe Illustrator 17.0.0, SVG Export Plug-In . SVG Version: 6.00 Build 0)  -->
<!DOCTYPE svg PUBLIC "-//W3C//DTD SVG 1.1//EN" "http://www.w3.org/Graphics/SVG/1.1/DTD/svg11.dtd">
<svg version="1.1" id="Shape_34_1_" xmlns="http://www.w3.org/2000/svg" xmlns:xlink="http://www.w3.org/1999/xlink" x="0px"
	 y="0px" width="25px" height="25px" viewBox="0 0 25 25" enable-background="new 0 0 25 25" xml:space="preserve">
	 <symbol viewBox="0 0 25 25" id="course">
<g id="Shape_34">
	<g>
		<path clip-rule="evenodd" d="M17.967,8.594H7.032c-0.431,0-0.781,0.35-0.781,0.781
			c0,0.431,0.35,0.781,0.781,0.781h10.935c0.431,0,0.781-0.35,0.781-0.781C18.748,8.944,18.399,8.594,17.967,8.594z M16.405,13.281
			H8.594c-0.431,0-0.781,0.35-0.781,0.781c0,0.431,0.35,0.781,0.781,0.781h7.811c0.431,0,0.781-0.35,0.781-0.781
			C17.186,13.631,16.836,13.281,16.405,13.281z M12.5,0.002c-6.902,0-12.498,4.896-12.498,10.935c0,3.452,1.832,6.525,4.686,8.529
			v5.531l5.475-3.322c0.758,0.125,1.537,0.198,2.336,0.198c6.903,0,12.498-4.896,12.498-10.936
			C24.997,4.898,19.402,0.002,12.5,0.002z M12.5,20.311c-0.912,0-1.793-0.106-2.64-0.287l-3.678,2.211l0.049-3.623
			c-2.819-1.696-4.667-4.498-4.667-7.674c0-5.176,4.896-9.373,10.935-9.373c6.039,0,10.936,4.197,10.936,9.373
			C23.435,16.114,18.539,20.311,12.5,20.311z"/>
	</g>
</g>
</symbol>
</svg>
