<?xml version="1.0" encoding="utf-8"?>
<!-- Generator: Adobe Illustrator 17.0.0, SVG Export Plug-In . SVG Version: 6.00 Build 0)  -->
<!DOCTYPE svg PUBLIC "-//W3C//DTD SVG 1.1//EN" "http://www.w3.org/Graphics/SVG/1.1/DTD/svg11.dtd">
<svg version="1.1" id="Shape_33_1_" xmlns="http://www.w3.org/2000/svg" xmlns:xlink="http://www.w3.org/1999/xlink" x="0px"
	 y="0px" width="15px" height="18px" viewBox="0 0 15 18" enable-background="new 0 0 15 18" xml:space="preserve">
<symbol viewBox="0 0 15 18" id="education">
<g id="Shape_33">
	<g>
		<path clip-rule="evenodd" d="M4.949,14.684c0.244,0.089,0.52-0.026,0.613-0.262l0.694-1.728
			h2.432c0.019,0,0.035-0.004,0.05-0.004l0.694,1.732c0.074,0.181,0.252,0.292,0.442,0.292c0.058,0,0.112-0.011,0.171-0.03
			c0.244-0.089,0.369-0.351,0.275-0.583L8.227,8.887c-0.116-0.292-0.404-0.48-0.729-0.48s-0.613,0.188-0.729,0.48l-2.095,5.214
			C4.581,14.333,4.705,14.592,4.949,14.684z M7.498,9.6l0.88,2.19H6.621L7.498,9.6z M3.107,2.393c-0.264,0-0.477,0.203-0.477,0.454
			s0.213,0.454,0.477,0.454h10.865c0.264,0,0.477-0.203,0.477-0.454s-0.213-0.454-0.477-0.454H3.107z M14.523,4.7H2.944
			C1.846,4.7,0.95,3.847,0.95,2.802c0-1.045,0.896-1.898,1.994-1.898h11.579c0.26,0,0.473-0.203,0.473-0.45
			C14.996,0.203,14.783,0,14.519,0H2.944C1.319,0,0,1.259,0,2.802v12.395C0,16.745,1.323,18,2.944,18h11.579
			C14.787,18,15,17.797,15,17.546V5.154C15,4.903,14.787,4.7,14.523,4.7z M14.046,17.095H2.944c-1.098,0-1.994-0.853-1.994-1.898
			V4.863c0.524,0.462,1.226,0.742,1.994,0.742h11.102V17.095z"/>
	</g>
</g>
</symbol>
</svg>
