<?xml version="1.0" encoding="utf-8"?>
<!-- Generator: Adobe Illustrator 17.0.0, SVG Export Plug-In . SVG Version: 6.00 Build 0)  -->
<!DOCTYPE svg PUBLIC "-//W3C//DTD SVG 1.1//EN" "http://www.w3.org/Graphics/SVG/1.1/DTD/svg11.dtd">
<svg version="1.1" id="Shape_9_1_" xmlns="http://www.w3.org/2000/svg" xmlns:xlink="http://www.w3.org/1999/xlink" x="0px" y="0px"
	 width="25px" height="28px" viewBox="0 0 25 28" enable-background="new 0 0 25 28" xml:space="preserve">
	<symbol viewBox="0 0 25 28" id="license">
<g id="Shape_9">
	<g>
		<path fill-rule="evenodd" clip-rule="evenodd" d="M8.752,7.741h1.514v1.483c0,0.217,0.148,0.362,0.369,0.362
			s0.369-0.145,0.369-0.362V7.741h1.514c0.222,0,0.369-0.145,0.369-0.362c0-0.217-0.148-0.362-0.369-0.362h-1.514V5.535
			c0-0.217-0.148-0.362-0.369-0.362s-0.369,0.145-0.369,0.362v1.483H8.752c-0.222,0-0.369,0.145-0.369,0.362
			C8.382,7.597,8.53,7.741,8.752,7.741z M3.397,13.602h13.922c0.222,0,0.369-0.145,0.369-0.362c0-0.217-0.148-0.362-0.369-0.362
			H3.397c-0.222,0-0.369,0.145-0.369,0.362C3.028,13.457,3.176,13.602,3.397,13.602z M3.397,16.713h13.922
			c0.222,0,0.369-0.145,0.369-0.362c0-0.217-0.148-0.362-0.369-0.362H3.397c-0.222,0-0.369,0.145-0.369,0.362
			C3.028,16.532,3.176,16.713,3.397,16.713z M3.397,22.863h13.922c0.222,0,0.369-0.145,0.369-0.362c0-0.217-0.148-0.362-0.369-0.362
			H3.397c-0.222,0-0.369,0.145-0.369,0.362C3.028,22.718,3.176,22.863,3.397,22.863z M3.397,19.788h13.922
			c0.222,0,0.369-0.145,0.369-0.362c0-0.217-0.148-0.362-0.369-0.362H3.397c-0.222,0-0.369,0.145-0.369,0.362
			C3.028,19.607,3.176,19.788,3.397,19.788z M21.935,0.325c0-0.109-0.074-0.181-0.148-0.253C21.713,0,21.602,0,21.529,0L7.866,1.736
			H7.829H0.369C0.148,1.736,0,1.881,0,2.098v25.54C0,27.855,0.148,28,0.369,28h19.978c0.222,0,0.369-0.145,0.369-0.362v-2.243
			l3.951-0.47c0.111,0,0.185-0.072,0.258-0.145C25,24.708,25,24.599,25,24.527L21.935,0.325z M19.978,27.313H0.738V2.46h19.239
			V27.313z M20.716,24.672V2.098c0-0.217-0.148-0.362-0.369-0.362h-6.905l7.792-0.977l2.991,23.514L20.716,24.672z"/>
	</g>
</g>
</symbol>
</svg>


