<?xml version="1.0" encoding="utf-8"?>
<!-- Generator: Adobe Illustrator 17.0.0, SVG Export Plug-In . SVG Version: 6.00 Build 0)  -->
<!DOCTYPE svg PUBLIC "-//W3C//DTD SVG 1.1//EN" "http://www.w3.org/Graphics/SVG/1.1/DTD/svg11.dtd">
<svg version="1.1" id="Shape_30_1_" xmlns="http://www.w3.org/2000/svg" xmlns:xlink="http://www.w3.org/1999/xlink" x="0px"
	 y="0px" width="20px" height="20px" viewBox="0 0 20 20" enable-background="new 0 0 20 20" xml:space="preserve">
	 <symbol viewBox="0 0 20 20" id="license2">
<g id="Shape_30">
	<g>
		<path d="M11.481,8.373l-2.239,2.181L8.515,9.838c-0.201-0.196-0.522-0.196-0.723,0s-0.201,0.512-0.004,0.708
			l1.09,1.072c0.096,0.094,0.226,0.147,0.363,0.147c0.134,0,0.263-0.053,0.359-0.147l2.602-2.533
			c0.201-0.196,0.201-0.512,0.004-0.708C12.007,8.181,11.681,8.181,11.481,8.373z M9.998,4.092c-3.325,0-6.027,2.648-6.027,5.905
			c0,3.254,2.703,5.906,6.027,5.906c3.325,0,6.027-2.652,6.027-5.906C16.025,6.74,13.323,4.092,9.998,4.092z M9.998,14.901
			c-2.757,0-5.004-2.198-5.004-4.903c0-2.701,2.243-4.903,5.004-4.903s5.004,2.202,5.004,4.903
			C15.002,12.699,12.755,14.901,9.998,14.901z M19.672,10.808l-0.363-0.491c-0.171-0.229-0.175-0.544-0.004-0.778l0.355-0.495
			c0.28-0.389,0.38-0.88,0.267-1.346c-0.113-0.466-0.422-0.864-0.852-1.089l-0.543-0.286c-0.259-0.135-0.397-0.413-0.351-0.696
			l0.104-0.597c0.079-0.471-0.05-0.954-0.355-1.326c-0.309-0.372-0.764-0.597-1.249-0.618l-0.618-0.025
			c-0.292-0.012-0.543-0.205-0.622-0.479l-0.18-0.577c-0.209-0.708-0.881-1.203-1.637-1.203c-0.23,0-0.46,0.045-0.673,0.135
			l-0.568,0.237c-0.263,0.111-0.585,0.041-0.773-0.168l-0.414-0.45C10.875,0.205,10.411,0,9.931,0C9.438,0,8.97,0.209,8.644,0.573
			L8.243,1.031c-0.188,0.213-0.505,0.286-0.773,0.18L6.898,0.982C6.69,0.9,6.472,0.855,6.251,0.855
			c-0.764,0-1.441,0.503-1.642,1.228L4.447,2.668C4.371,2.943,4.121,3.139,3.828,3.155L3.214,3.192
			C2.73,3.217,2.274,3.45,1.974,3.826C1.673,4.203,1.552,4.69,1.64,5.156L1.752,5.75c0.054,0.282-0.083,0.565-0.338,0.704
			L0.875,6.748C0.449,6.982,0.144,7.383,0.04,7.849c-0.104,0.467,0,0.958,0.288,1.342l0.363,0.487
			c0.171,0.229,0.175,0.544,0.004,0.778l-0.355,0.495c-0.28,0.389-0.38,0.88-0.267,1.346c0.113,0.467,0.422,0.864,0.852,1.089
			l0.543,0.286c0.259,0.135,0.397,0.413,0.351,0.696l-0.104,0.597c-0.079,0.471,0.05,0.954,0.355,1.326
			c0.309,0.372,0.764,0.597,1.249,0.618l0.618,0.025c0.292,0.012,0.543,0.205,0.622,0.479l0.171,0.581
			c0.209,0.708,0.881,1.203,1.637,1.203c0.23,0,0.459-0.045,0.672-0.135l0.568-0.237c0.263-0.11,0.585-0.041,0.773,0.168l0.413,0.45
			C9.117,19.795,9.58,20,10.06,20c0.493,0,0.961-0.209,1.286-0.573l0.405-0.458c0.188-0.213,0.505-0.286,0.773-0.18l0.572,0.229
			c0.209,0.082,0.426,0.127,0.648,0.127c0.764,0,1.441-0.503,1.642-1.228l0.163-0.585c0.075-0.274,0.326-0.471,0.618-0.487
			l0.618-0.037c0.489-0.029,0.94-0.258,1.241-0.634c0.301-0.376,0.422-0.859,0.334-1.33l-0.113-0.593
			c-0.054-0.282,0.084-0.565,0.338-0.704l0.539-0.295c0.426-0.233,0.731-0.634,0.835-1.101
			C20.065,11.684,19.96,11.193,19.672,10.808z M18.962,11.934c-0.042,0.188-0.163,0.344-0.334,0.438l-0.539,0.295
			c-0.639,0.348-0.982,1.056-0.848,1.76l0.113,0.593c0.038,0.192-0.013,0.381-0.134,0.532c-0.121,0.151-0.297,0.241-0.497,0.254
			l-0.614,0.037c-0.731,0.041-1.353,0.532-1.546,1.224L14.4,17.647c-0.079,0.291-0.351,0.491-0.656,0.491
			c-0.088,0-0.175-0.016-0.259-0.049l-0.572-0.229c-0.209-0.082-0.426-0.127-0.647-0.127c-0.493,0-0.961,0.209-1.287,0.573
			l-0.405,0.454c-0.13,0.147-0.313,0.229-0.514,0.229c-0.196,0-0.376-0.078-0.505-0.221l-0.414-0.45
			c-0.322-0.352-0.785-0.557-1.27-0.557c-0.234,0-0.459,0.045-0.673,0.135l-0.568,0.237c-0.088,0.037-0.175,0.053-0.267,0.053
			c-0.301,0-0.568-0.196-0.652-0.479l-0.171-0.581c-0.205-0.688-0.831-1.17-1.562-1.203l-0.618-0.025
			c-0.196-0.008-0.376-0.094-0.497-0.246c-0.125-0.151-0.175-0.34-0.142-0.528l0.104-0.598c0.121-0.708-0.23-1.408-0.877-1.747
			l-0.543-0.286c-0.175-0.09-0.297-0.246-0.343-0.434c-0.046-0.188-0.008-0.381,0.109-0.536l0.355-0.495
			c0.422-0.585,0.418-1.367-0.017-1.948L1.147,8.594C1.03,8.439,0.988,8.246,1.034,8.058C1.076,7.87,1.197,7.714,1.368,7.62
			l0.539-0.295c0.639-0.348,0.982-1.056,0.848-1.76L2.646,4.976C2.609,4.784,2.659,4.596,2.78,4.444
			c0.121-0.151,0.297-0.241,0.497-0.254l0.614-0.037C4.622,4.113,5.24,3.622,5.436,2.93l0.163-0.585
			C5.679,2.054,5.95,1.854,6.255,1.854c0.088,0,0.175,0.016,0.259,0.049l0.572,0.229c0.209,0.082,0.426,0.127,0.647,0.127
			c0.493,0,0.961-0.209,1.287-0.573l0.405-0.454c0.13-0.147,0.313-0.229,0.514-0.229c0.196,0,0.376,0.078,0.505,0.221l0.414,0.45
			c0.322,0.352,0.785,0.557,1.27,0.557c0.234,0,0.459-0.045,0.672-0.135l0.568-0.237c0.088-0.037,0.175-0.053,0.267-0.053
			c0.301,0,0.568,0.196,0.652,0.479l0.171,0.581c0.205,0.688,0.831,1.17,1.562,1.203l0.618,0.025
			c0.196,0.008,0.376,0.094,0.501,0.246s0.175,0.34,0.142,0.528l-0.104,0.597c-0.121,0.708,0.23,1.408,0.877,1.748l0.543,0.286
			c0.175,0.09,0.297,0.246,0.343,0.434c0.046,0.188,0.008,0.381-0.104,0.536l-0.355,0.495c-0.422,0.585-0.418,1.367,0.017,1.948
			l0.363,0.487C18.962,11.553,19.004,11.745,18.962,11.934z"/>
	</g>
</g>
</symbol>
</svg>
