<?xml version="1.0" encoding="utf-8"?>
<!-- Generator: Adobe Illustrator 17.0.0, SVG Export Plug-In . SVG Version: 6.00 Build 0)  -->
<!DOCTYPE svg PUBLIC "-//W3C//DTD SVG 1.1//EN" "http://www.w3.org/Graphics/SVG/1.1/DTD/svg11.dtd">
<svg version="1.1" id="Shape_15_1_" xmlns="http://www.w3.org/2000/svg" xmlns:xlink="http://www.w3.org/1999/xlink" x="0px"
	 y="0px" width="16px" height="16px" viewBox="0 0 16 16" enable-background="new 0 0 16 16" xml:space="preserve">
 <symbol viewBox="0 0 15 16" id="search">
<g id="Shape_15">
	<g>
		<path d="M15.842,15.123l-4.129-4.063c1.081-1.175,1.745-2.728,1.745-4.438C13.457,2.965,10.445,0,6.729,0
			S0,2.965,0,6.622c0,3.657,3.012,6.622,6.728,6.622c1.606,0,3.078-0.555,4.235-1.479l4.145,4.079c0.202,0.199,0.53,0.199,0.732,0
			C16.043,15.645,16.043,15.322,15.842,15.123z M6.729,12.225c-3.144,0-5.693-2.508-5.693-5.603c0-3.094,2.549-5.603,5.693-5.603
			c3.144,0,5.693,2.508,5.693,5.603C12.422,9.716,9.873,12.225,6.729,12.225z"/>
	</g>
</g>
</symbol>
</svg>
