<?xml version="1.0" encoding="utf-8"?>
<!-- Generator: Adobe Illustrator 17.0.0, SVG Export Plug-In . SVG Version: 6.00 Build 0)  -->
<!DOCTYPE svg PUBLIC "-//W3C//DTD SVG 1.1//EN" "http://www.w3.org/Graphics/SVG/1.1/DTD/svg11.dtd">
<svg version="1.1" id="Shape_8_1_" xmlns="http://www.w3.org/2000/svg" xmlns:xlink="http://www.w3.org/1999/xlink" x="0px" y="0px"
	 width="28px" height="21px" viewBox="0 0 28 21" enable-background="new 0 0 28 21" xml:space="preserve">
	 <symbol viewBox="0 0 28 21" id="state">
<g id="Shape_8">
	<g>
		<path clip-rule="evenodd" d="M19.687,5.687H8.312v0.875h11.375V5.687z M27.562,0H24.5h-21
			H0.437C0.195,0,0,0.196,0,0.437V3.5c0,0.242,0.196,0.438,0.437,0.438H3.5V21l3.938-1.75l3.5,1.75L14,19.25L17.062,21l3.5-1.75
			L24.5,21V3.937h3.062C27.804,3.937,28,3.741,28,3.5V0.437C28,0.196,27.804,0,27.562,0z M3.5,3.062H0.875V0.875H3.5V3.062z
			 M23.625,19.653l-2.707-1.203l-0.377-0.168l-0.369,0.185l-3.081,1.541l-2.656-1.518L14,18.242l-0.434,0.248l-2.656,1.518
			l-3.081-1.541l-0.369-0.185L7.082,18.45l-2.707,1.203V0.875h19.25V19.653z M27.125,3.062H24.5V0.875h2.625V3.062z M19.687,8.312
			H8.312v0.875h11.375V8.312z M19.687,10.937H8.312v0.875h11.375V10.937z M14.437,13.562H8.312v0.875h6.125V13.562z"/>
	</g>
</g>
</symbol>
</svg>
