<?xml version="1.0" encoding="utf-8"?>
<!-- Generator: Adobe Illustrator 17.0.0, SVG Export Plug-In . SVG Version: 6.00 Build 0)  -->
<!DOCTYPE svg PUBLIC "-//W3C//DTD SVG 1.1//EN" "http://www.w3.org/Graphics/SVG/1.1/DTD/svg11.dtd">
<svg version="1.1" id="Shape_12_1_" xmlns="http://www.w3.org/2000/svg" xmlns:xlink="http://www.w3.org/1999/xlink" x="0px"
	 y="0px" width="15px" height="15px" viewBox="0 0 15 15" enable-background="new 0 0 15 15" xml:space="preserve">
 <symbol viewBox="0 0 15 15" id="user">
<g id="Shape_12">
	<g>
		<path fill-rule="evenodd" clip-rule="evenodd" d="M10.125,9.25C11.562,8.375,12.5,6.812,12.5,5c0-2.75-2.25-5-5-5
			s-5,2.25-5,5c0,1.812,0.938,3.375,2.375,4.25C2.375,10.187,0.5,12.375,0,15h1.25c0.625-2.875,3.188-5,6.25-5s5.625,2.125,6.25,5
			H15C14.5,12.312,12.625,10.125,10.125,9.25z M3.75,5c0-2.063,1.688-3.75,3.75-3.75S11.25,2.937,11.25,5
			c0,2.063-1.688,3.75-3.75,3.75S3.75,7.062,3.75,5z"/>
	</g>
</g>
</symbol>
</svg>
